<?xml version="1.0" encoding="utf-8"?>
<!-- Generator: Adobe Adobe Illustrator 29.2.0, SVG Export Plug-In . SVG Version: 6.00 Build 0)  -->
<svg version="1.1" xmlns="http://www.w3.org/2000/svg" xmlns:xlink="http://www.w3.org/1999/xlink" x="0px" y="0px"
	 viewBox="0 0 1740 770" style="enable-background:new 0 0 1740 770;" xml:space="preserve">
<style type="text/css">
	.st0{fill:#2B394A;stroke:#000000;stroke-width:10.24;stroke-linecap:round;stroke-linejoin:round;stroke-miterlimit:3.9873;}
	.st1{fill:#DC6A24;stroke:#000000;stroke-width:10.24;stroke-linecap:round;stroke-linejoin:round;stroke-miterlimit:3.9873;}
	.st2{fill:#FFFFFF;stroke:#000000;stroke-width:10.24;stroke-linecap:round;stroke-linejoin:round;stroke-miterlimit:3.9873;}
	.st3{display:none;}
	
		.st4{display:inline;fill:#2B394A;stroke:#000000;stroke-width:10.24;stroke-linecap:round;stroke-linejoin:round;stroke-miterlimit:3.9873;}
	
		.st5{display:inline;fill:#DC6A24;stroke:#000000;stroke-width:10.24;stroke-linecap:round;stroke-linejoin:round;stroke-miterlimit:3.9873;}
	
		.st6{display:inline;fill:#FFFFFF;stroke:#000000;stroke-width:10.24;stroke-linecap:round;stroke-linejoin:round;stroke-miterlimit:3.9873;}
	.st7{display:inline;}
	
		.st8{display:inline;fill:#0C8214;stroke:#000000;stroke-width:10.24;stroke-linecap:round;stroke-linejoin:round;stroke-miterlimit:3.9873;}
	
		.st9{display:inline;fill:#FF1100;stroke:#000000;stroke-width:10.24;stroke-linecap:round;stroke-linejoin:round;stroke-miterlimit:3.9873;}
</style>
<g id="Layer_1">
	<polygon class="st0" points="340,314.1 678.4,720.9 849.6,720.9 511.2,314.1 1197.3,314.1 1308.6,182.6 28.2,182.6 137.7,314.1 	
		"/>
	<polygon class="st0" points="476.1,720.9 647.3,720.9 328.8,338.1 157.6,338.1 	"/>
	<polygon class="st1" points="968.9,621.1 733.4,338.1 562.2,338.1 880.7,720.9 1056.8,720.9 1512.3,182.6 1340,182.6 	"/>
	<polygon class="st2" points="969.1,583.9 1177,338.1 764.5,338.1 	"/>
	<polygon class="st1" points="1260.6,720.9 1714.5,184.3 1542.2,184.3 1088.2,720.9 	"/>
	<g>
		<path d="M88.8,56.6V160H75.9V56.6H47.9V44.5h68.9v12.1H88.8z"/>
		<path d="M172.9,44.5c7.8,0,19.4,0.5,28.1,6.4c6.8,4.5,12.6,13.3,12.6,25.6c0,17.7-11.6,30.7-29.1,31.9l36.7,51.6h-15.6l-35.2-50.6
			h-3.3V160h-12.8V44.5H172.9z M167.2,98h8.1c15.9,0,25.5-7.6,25.5-21.1c0-6.4-1.9-12.8-9.2-17c-5.2-2.9-11.1-3.3-16.6-3.3h-7.8V98z
			"/>
		<path d="M274.4,44.5V160h-12.8V44.5H274.4z"/>
		<path d="M325.1,44.5l32.6,88.1l32.6-88.1h14.2l-46.8,122.4L310.9,44.5H325.1z"/>
		<path d="M453.8,44.5V160H441V44.5H453.8z"/>
		<path d="M567.6,127.4h-49.2L504.6,160h-14.2l53.2-121l51.8,121h-14.2L567.6,127.4z M562.6,115.3l-19.4-46.2l-19.7,46.2H562.6z"/>
		<path d="M693.1,44.5l32.6,88.1l32.6-88.1h14.2l-46.8,122.4L678.9,44.5H693.1z"/>
		<path d="M863.7,127.4h-49.2L800.7,160h-14.2l53.2-121l51.8,121h-14.2L863.7,127.4z M858.7,115.3l-19.4-46.2l-19.7,46.2H858.7z"/>
		<path d="M928,160V39.6l90,94.4V44.5h12.8v120.7l-90-94.4V160H928z"/>
		<path d="M1140.5,102h48.1v2.8c0,12.8-3.8,26.7-11.1,36.5c-3.5,4.7-16.5,20.8-42.9,20.8c-34.3,0-59.9-26.1-59.9-59.7
			c0-33.6,25.8-59.7,60.3-59.7c11.1,0,24.1,2.8,35.3,11.4c5.2,4,10,9.2,13.3,13.7l-9.5,8.7c-3.3-4.7-7.1-8.8-10.9-11.9
			c-5.5-4.5-14.2-9.7-28.1-9.7c-27.9,0-47.3,21-47.3,47.8c0,31.5,25.1,47.4,46.9,47.4c15.4,0,28.7-7.8,35.3-19.4
			c2.1-3.6,4.3-9.2,4.7-16.5h-34.3V102z"/>
		<path d="M1245.2,115.3c0,9.7,0,20.3,9.2,28.1c4.7,4,12.6,6.6,19,6.6s14.4-2.6,19-6.6c9.2-7.8,9.2-18.4,9.2-28.1V44.5h12.8v74.3
			c0,9.7-1,19-7.3,27.7c-6.9,9.5-19,15.6-33.8,15.6s-26.8-6.1-33.8-15.6c-6.2-8.7-7.3-18-7.3-27.7V44.5h12.8V115.3z"/>
		<path d="M1428.3,127.4h-49.2l-13.9,32.6H1351l53.2-121l51.8,121h-14.2L1428.3,127.4z M1423.3,115.3l-19.4-46.2l-19.7,46.2H1423.3z
			"/>
		<path d="M1511.1,44.5c7.8,0,19.4,0.5,28.1,6.4c6.8,4.5,12.6,13.3,12.6,25.6c0,17.7-11.6,30.7-29.1,31.9l36.7,51.6h-15.6
			l-35.2-50.6h-3.3V160h-12.8V44.5H1511.1z M1505.3,98h8.1c15.9,0,25.5-7.6,25.5-21.1c0-6.4-1.9-12.8-9.2-17
			c-5.2-2.9-11.1-3.3-16.6-3.3h-7.8V98z"/>
		<path d="M1599.7,44.5h23.6c11.6,0,28.1,1.2,42.6,13.5c10.6,8.8,19.7,23.6,19.7,44.3c0,24.2-11.9,37.2-20.3,44.3
			c-10.6,9-21.6,13.3-42.3,13.3h-23.4V44.5z M1612.5,147.9h11.3c9.2,0,21.8-1,33.1-10.4c8.7-7.3,15.6-18.7,15.6-35.2
			c0-27.7-19.4-45.7-48.7-45.7h-11.3V147.9z"/>
	</g>
	<rect x="-86.6" y="-298.9" style="fill:none;" width="264.1" height="106.4"/>
</g>
<g id="Layer_2" class="st3">
	<polygon class="st4" points="451.1,270.8 727,602.3 866.5,602.3 590.6,270.8 1149.8,270.8 1240.6,163.5 197,163.5 286.2,270.8 	"/>
	<polygon class="st4" points="562.1,602.3 701.6,602.3 442,290.3 302.5,290.3 	"/>
	<polygon class="st5" points="963.7,521 771.8,290.3 632.2,290.3 891.8,602.3 1035.4,602.3 1406.6,163.5 1266.1,163.5 	"/>
	<polygon class="st6" points="963.8,490.6 1133.3,290.3 797.1,290.3 	"/>
	<polygon class="st5" points="1201.4,602.3 1571.5,165 1431,165 1060.9,602.3 	"/>
	<g class="st7">
		<path d="M246.3,60.9v84.3h-10.4V60.9H213V51h56.2v9.9H246.3z"/>
		<path d="M314.9,51c6.4,0,15.8,0.4,22.9,5.2c5.5,3.7,10.3,10.9,10.3,20.9c0,14.4-9.5,25-23.7,26l29.9,42.1h-12.7L313,103.9h-2.7
			v41.2h-10.4V51H314.9z M310.3,94.6h6.6c13,0,20.7-6.2,20.7-17.2c0-5.2-1.6-10.4-7.5-13.8c-4.2-2.4-9-2.7-13.5-2.7h-6.4V94.6z"/>
		<path d="M397.6,51v94.1h-10.4V51H397.6z"/>
		<path d="M439,51l26.5,71.8L492.1,51h11.6l-38.1,99.8L427.4,51H439z"/>
		<path d="M543.9,51v94.1h-10.4V51H543.9z"/>
		<path d="M636.6,118.6h-40.1l-11.3,26.5h-11.6L617,46.5l42.2,98.7h-11.6L636.6,118.6z M632.5,108.7L616.7,71l-16.1,37.7H632.5z"/>
		<path d="M738.9,51l26.5,71.8L792,51h11.6l-38.1,99.8L727.4,51H738.9z"/>
		<path d="M878,118.6h-40.1l-11.3,26.5H815l43.3-98.7l42.2,98.7H889L878,118.6z M873.9,108.7L858.1,71L842,108.7H873.9z"/>
		<path d="M930.3,145.1V47l73.4,76.9V51h10.4v98.4l-73.4-76.9v72.7H930.3z"/>
		<path d="M1103.5,97.9h39.2v2.3c0,10.4-3.1,21.7-9,29.8c-2.8,3.8-13.4,16.9-35,16.9c-27.9,0-48.8-21.3-48.8-48.7s21-48.7,49.1-48.7
			c9,0,19.6,2.3,28.8,9.3c4.2,3.2,8.2,7.5,10.9,11.2l-7.8,7.1c-2.7-3.8-5.8-7.2-8.9-9.7c-4.5-3.7-11.6-7.9-22.9-7.9
			c-22.7,0-38.5,17.1-38.5,39c0,25.7,20.5,38.7,38.2,38.7c12.6,0,23.4-6.4,28.8-15.8c1.7-3,3.5-7.5,3.8-13.4h-27.9V97.9z"/>
		<path d="M1188.9,108.7c0,7.9,0,16.5,7.5,22.9c3.8,3.2,10.3,5.4,15.5,5.4c5.2,0,11.7-2.1,15.5-5.4c7.5-6.4,7.5-15,7.5-22.9V51h10.4
			v60.6c0,7.9-0.8,15.5-5.9,22.6c-5.6,7.8-15.5,12.7-27.5,12.7c-12,0-21.9-4.9-27.5-12.7c-5.1-7.1-5.9-14.7-5.9-22.6V51h10.4V108.7z
			"/>
		<path d="M1338.1,118.6H1298l-11.3,26.5h-11.6l43.3-98.7l42.2,98.7h-11.6L1338.1,118.6z M1334,108.7L1318.2,71l-16.1,37.7H1334z"/>
		<path d="M1405.6,51c6.4,0,15.8,0.4,22.9,5.2c5.5,3.7,10.3,10.9,10.3,20.9c0,14.4-9.5,25-23.7,26l29.9,42.1h-12.7l-28.7-41.2h-2.7
			v41.2h-10.4V51H1405.6z M1400.9,94.6h6.6c13,0,20.7-6.2,20.7-17.2c0-5.2-1.6-10.4-7.5-13.8c-4.2-2.4-9-2.7-13.5-2.7h-6.4V94.6z"/>
		<path d="M1477.9,51h19.2c9.5,0,22.9,1,34.7,11c8.6,7.2,16.1,19.2,16.1,36.1c0,19.8-9.7,30.3-16.5,36.1
			c-8.6,7.3-17.6,10.9-34.4,10.9h-19.1V51z M1488.3,135.3h9.2c7.5,0,17.8-0.8,27-8.5c7.1-5.9,12.7-15.2,12.7-28.7
			c0-22.6-15.8-37.3-39.7-37.3h-9.2V135.3z"/>
	</g>
	<polygon class="st4" points="1406.9,1416.4 1682.7,1747.9 1822.3,1747.9 1546.4,1416.4 2105.6,1416.4 2196.4,1309.2 1152.8,1309.2 
		1242,1416.4 	"/>
	<polygon class="st4" points="1517.8,1747.9 1657.4,1747.9 1397.8,1435.9 1258.2,1435.9 	"/>
	<polygon class="st5" points="1919.5,1666.6 1727.5,1435.9 1588,1435.9 1847.6,1747.9 1991.2,1747.9 2362.4,1309.2 2221.9,1309.2 	
		"/>
	<polygon class="st6" points="1919.6,1636.2 2089.1,1435.9 1752.9,1435.9 	"/>
	<polygon class="st5" points="2157.2,1747.9 2527.2,1310.6 2386.7,1310.6 2016.7,1747.9 	"/>
	<polygon class="st5" points="3615.2,1739.9 3615.2,1310.6 2556.7,1310.6 2186.7,1747.9 	"/>
	<polygon class="st4" points="64.6,1747.9 59.1,1309.2 1123,1309.2 1488,1747.9 	"/>
	<g class="st7">
		<path d="M1202.1,1206.5v84.3h-10.4v-84.3h-22.9v-9.9h56.2v9.9H1202.1z"/>
		<path d="M1270.7,1196.6c6.4,0,15.8,0.4,22.9,5.2c5.5,3.7,10.3,10.9,10.3,20.9c0,14.4-9.5,25-23.7,26l29.9,42.1h-12.7l-28.7-41.2
			h-2.7v41.2h-10.4v-94.1H1270.7z M1266,1240.2h6.6c13,0,20.7-6.2,20.7-17.2c0-5.2-1.6-10.4-7.5-13.8c-4.2-2.4-9-2.7-13.5-2.7h-6.4
			V1240.2z"/>
		<path d="M1353.4,1196.6v94.1H1343v-94.1H1353.4z"/>
		<path d="M1394.8,1196.6l26.5,71.8l26.5-71.8h11.6l-38.1,99.8l-38.1-99.8H1394.8z"/>
		<path d="M1499.7,1196.6v94.1h-10.4v-94.1H1499.7z"/>
		<path d="M1592.4,1264.2h-40.1l-11.3,26.5h-11.6l43.3-98.7l42.2,98.7h-11.6L1592.4,1264.2z M1588.3,1254.3l-15.8-37.7l-16.1,37.7
			H1588.3z"/>
		<path d="M1694.7,1196.6l26.5,71.8l26.5-71.8h11.6l-38.1,99.8l-38.1-99.8H1694.7z"/>
		<path d="M1833.8,1264.2h-40.1l-11.3,26.5h-11.6l43.3-98.7l42.2,98.7h-11.6L1833.8,1264.2z M1829.7,1254.3l-15.8-37.7l-16.1,37.7
			H1829.7z"/>
		<path d="M1886.1,1290.8v-98.1l73.4,76.9v-73h10.4v98.4l-73.4-76.9v72.7H1886.1z"/>
		<path d="M2059.3,1243.5h39.2v2.3c0,10.4-3.1,21.7-9,29.8c-2.8,3.8-13.4,16.9-35,16.9c-27.9,0-48.8-21.3-48.8-48.7
			s21-48.7,49.1-48.7c9,0,19.6,2.3,28.8,9.3c4.2,3.2,8.2,7.5,10.9,11.2l-7.8,7.1c-2.7-3.8-5.8-7.2-8.9-9.7
			c-4.5-3.7-11.6-7.9-22.9-7.9c-22.7,0-38.5,17.1-38.5,39c0,25.7,20.5,38.7,38.2,38.7c12.6,0,23.4-6.4,28.8-15.8
			c1.7-3,3.5-7.5,3.8-13.4h-27.9V1243.5z"/>
		<path d="M2144.7,1254.3c0,7.9,0,16.5,7.5,22.9c3.8,3.2,10.3,5.4,15.5,5.4c5.2,0,11.7-2.1,15.5-5.4c7.5-6.4,7.5-15,7.5-22.9v-57.7
			h10.4v60.6c0,7.9-0.8,15.5-5.9,22.6c-5.6,7.8-15.5,12.7-27.5,12.7c-12,0-21.9-4.9-27.5-12.7c-5.1-7.1-5.9-14.7-5.9-22.6v-60.6
			h10.4V1254.3z"/>
		<path d="M2293.9,1264.2h-40.1l-11.3,26.5h-11.6l43.3-98.7l42.2,98.7h-11.6L2293.9,1264.2z M2289.8,1254.3l-15.8-37.7l-16.1,37.7
			H2289.8z"/>
		<path d="M2361.4,1196.6c6.4,0,15.8,0.4,22.9,5.2c5.5,3.7,10.3,10.9,10.3,20.9c0,14.4-9.5,25-23.7,26l29.9,42.1H2388l-28.7-41.2
			h-2.7v41.2h-10.4v-94.1H2361.4z M2356.7,1240.2h6.6c13,0,20.7-6.2,20.7-17.2c0-5.2-1.6-10.4-7.5-13.8c-4.2-2.4-9-2.7-13.5-2.7
			h-6.4V1240.2z"/>
		<path d="M2433.6,1196.6h19.2c9.5,0,22.9,1,34.7,11c8.6,7.2,16.1,19.2,16.1,36.1c0,19.8-9.7,30.3-16.5,36.1
			c-8.6,7.3-17.6,10.9-34.4,10.9h-19.1V1196.6z M2444.1,1280.9h9.2c7.5,0,17.8-0.8,27-8.5c7.1-5.9,12.7-15.2,12.7-28.7
			c0-22.6-15.8-37.3-39.7-37.3h-9.2V1280.9z"/>
	</g>
	<rect x="103.4" y="-228.9" style="display:inline;fill:none;" width="215.3" height="86.7"/>
	<g>
	</g>
	<g class="st7">
		<path d="M342.1,668v32.1h-6.6V668h-3.7V662h3.7v-16.7c0-3.5,0.3-7.9,3.7-10.8c1.8-1.6,4.6-2.5,7.6-2.5c2.4,0,4,0.6,4.7,0.8v6.4
			c-1.4-0.6-2.9-0.8-4.3-0.8c-1.5,0-3.2,0.4-4.2,2c-0.8,1.4-0.8,3.5-0.8,5.5V662h9.4v6.1H342.1z"/>
		<path d="M386.6,662h6.6v38.2h-6.6v-5.3c-2.2,2.9-6.3,6.4-13.1,6.4c-9.7,0-18.6-6.8-18.6-20.2c0-13.2,8.8-20,18.6-20
			c7.4,0,11.3,4,13.1,6.3V662z M361.8,681c0,8.2,4.6,14.4,12.5,14.4c8.1,0,12.7-6.7,12.7-14.3c0-9.8-6.8-14.2-12.7-14.2
			C367.8,666.9,361.8,671.7,361.8,681z"/>
		<path d="M435.7,672.6c-3.5-4.4-8.6-5.7-12-5.7c-7.1,0-13.5,5-13.5,14.3s6.6,14.2,13.4,14.2c4,0,8.8-1.7,12.3-6v7.9
			c-4.1,3-8.6,4-12.1,4c-11.9,0-20.4-8.5-20.4-20c0-11.7,8.6-20.2,20.4-20.2c6.1,0,10,2.4,11.9,3.7V672.6z"/>
		<path d="M479.9,690.4c-1.1,2.1-2.8,4.4-4.7,6.2c-3.5,3.1-7.8,4.7-12.7,4.7c-9.2,0-18.9-5.8-18.9-20c0-11.4,7-20.2,18.5-20.2
			c7.5,0,12.1,3.7,14.4,7c2.4,3.4,3.8,9.3,3.6,14.4h-29.7c0.1,7.9,5.5,13,12.1,13c3.1,0,5.6-0.9,7.8-2.8c1.7-1.5,3.1-3.4,4-5.2
			L479.9,690.4z M473.4,676.9c-1.1-6-5.6-9.9-11.2-9.9c-5.6,0-10.2,4.2-11.2,9.9H473.4z"/>
		<path d="M496.9,700.1h-6.6v-67.1h6.6v34.2c4.5-5.6,10.3-6.3,13.1-6.3c12,0,18.6,9.9,18.6,20.2c0,10.5-6.7,20-18.3,20
			c-6.2,0-10.5-2.8-13.3-6.4V700.1z M521.8,681.3c0-9.4-6.3-14.4-12.5-14.4c-6.2,0-12.7,5.1-12.7,14.3c0,7.8,5,14.2,12.8,14.2
			C517.1,695.4,521.8,688.9,521.8,681.3z"/>
		<path d="M536.3,681.2c0-11.6,8.6-20.1,20.2-20.1s20.2,8.6,20.2,20.1c0,11.6-8.6,20.1-20.2,20.1C545,701.3,536.3,692.8,536.3,681.2
			z M543.1,681.2c0,9.4,6.6,14.2,13.4,14.2c6.9,0,13.4-4.9,13.4-14.2c0-9.4-6.4-14.3-13.4-14.3C549.6,666.9,543.1,671.9,543.1,681.2
			z"/>
		<path d="M584.5,681.2c0-11.6,8.6-20.1,20.2-20.1s20.2,8.6,20.2,20.1c0,11.6-8.6,20.1-20.2,20.1
			C593.2,701.3,584.5,692.8,584.5,681.2z M591.3,681.2c0,9.4,6.6,14.2,13.4,14.2c6.9,0,13.4-4.9,13.4-14.2c0-9.4-6.4-14.3-13.4-14.3
			C597.8,666.9,591.3,671.9,591.3,681.2z"/>
		<path d="M641.8,633.1v43.1l14-14.2h8.6L648,678.3l19.3,21.8h-8.6l-15.3-17.4l-1.7,1.7v15.7h-6.6v-67.1H641.8z"/>
		<path d="M678.2,691.9c2.5,0,4.6,2.1,4.6,4.6s-2.1,4.6-4.6,4.6c-2.5,0-4.6-2.1-4.6-4.6S675.7,691.9,678.2,691.9z"/>
		<path d="M724.8,672.6c-3.5-4.4-8.6-5.7-12-5.7c-7.1,0-13.5,5-13.5,14.3s6.6,14.2,13.4,14.2c4,0,8.8-1.7,12.3-6v7.9
			c-4.1,3-8.6,4-12.1,4c-11.9,0-20.4-8.5-20.4-20c0-11.7,8.6-20.2,20.4-20.2c6.1,0,10,2.4,11.9,3.7V672.6z"/>
		<path d="M732.8,681.2c0-11.6,8.6-20.1,20.2-20.1s20.2,8.6,20.2,20.1c0,11.6-8.6,20.1-20.2,20.1
			C741.5,701.3,732.8,692.8,732.8,681.2z M739.6,681.2c0,9.4,6.6,14.2,13.4,14.2c6.9,0,13.4-4.9,13.4-14.2c0-9.4-6.4-14.3-13.4-14.3
			C746.1,666.9,739.6,671.9,739.6,681.2z"/>
		<path d="M783.4,662h6.6v4c2.1-3.1,5.4-5,9.5-5c6.9,0,9.7,4.9,10.4,6.2c3.7-5.8,8.9-6.2,11.5-6.2c11.3,0,12.4,9.5,12.4,14.9v24.2
			h-6.6V677c0-4.3-0.6-10-6.8-10c-7.6,0-8.5,7.4-8.5,12v21.3h-6.6v-22.6c0-2.7,0.1-10.6-6.9-10.6c-7.5,0-8.4,7.8-8.4,12.4v20.8h-6.6
			V662z"/>
		<path d="M887.5,630.3l5.3,2.8l-47.3,85.3l-5.3-2.6L887.5,630.3z"/>
		<path d="M907.7,668v32.1h-6.6V668h-4V662h4v-13.8h6.6V662h6.6v6.1H907.7z"/>
		<path d="M920.6,662h6.6v4.1c0.6-1,3.5-5.1,8.6-5.1c2,0,4.2,0.7,5.9,1.6l-3.1,6c-1.5-1-2.9-1.3-3.9-1.3c-2.7,0-4.3,1.1-5.3,2.4
			c-1.1,1.5-2.2,4-2.2,10.3v20.1h-6.6V662z"/>
		<path d="M951.1,642.8c2.6,0,4.7,2.1,4.7,4.7c0,2.6-2.1,4.7-4.7,4.7s-4.7-2.1-4.7-4.7C946.5,645,948.6,642.8,951.1,642.8z
			 M954.5,662v38.2h-6.6V662H954.5z"/>
		<path d="M968.8,662l11.4,25.8l11.4-25.8h7.4l-18.8,40.7L961.4,662H968.8z"/>
		<path d="M1009.3,642.8c2.6,0,4.7,2.1,4.7,4.7c0,2.6-2.1,4.7-4.7,4.7s-4.7-2.1-4.7-4.7C1004.6,645,1006.7,642.8,1009.3,642.8z
			 M1012.6,662v38.2h-6.6V662H1012.6z"/>
		<path d="M1054.4,662h6.6v38.2h-6.6v-5.3c-2.2,2.9-6.3,6.4-13.1,6.4c-9.7,0-18.6-6.8-18.6-20.2c0-13.2,8.8-20,18.6-20
			c7.4,0,11.3,4,13.1,6.3V662z M1029.5,681c0,8.2,4.6,14.4,12.5,14.4c8.1,0,12.7-6.7,12.7-14.3c0-9.8-6.8-14.2-12.7-14.2
			C1035.5,666.9,1029.5,671.7,1029.5,681z"/>
		<path d="M1075.3,662l11.4,25.8l11.4-25.8h7.4l-18.8,40.7L1068,662H1075.3z"/>
		<path d="M1141.8,662h6.6v38.2h-6.6v-5.3c-2.2,2.9-6.3,6.4-13.1,6.4c-9.7,0-18.6-6.8-18.6-20.2c0-13.2,8.8-20,18.6-20
			c7.4,0,11.3,4,13.1,6.3V662z M1116.9,681c0,8.2,4.6,14.4,12.5,14.4c8.1,0,12.7-6.7,12.7-14.3c0-9.8-6.8-14.2-12.7-14.2
			C1122.9,666.9,1116.9,671.7,1116.9,681z"/>
		<path d="M1160.9,662h6.6v4.4c1.2-1.6,4.6-5.3,10.9-5.3c4.5,0,8.6,1.8,10.9,5.2c1.9,2.9,2.2,6,2.2,10.2v23.6h-6.6v-23.5
			c0-2.3-0.2-5-1.7-7c-1.3-1.7-3.3-2.8-6.3-2.8c-2.3,0-4.8,0.6-6.7,2.9c-2.6,3-2.8,7.5-2.8,10.3v20h-6.6V662z"/>
		<path d="M1233.4,662h6.6v37.3c0,4.1,0,10-3.7,15c-2.9,3.9-8.1,7.1-15.3,7.1c-6.5,0-11-2.6-13.6-5.2c-2.6-2.6-5-6.7-5-12.3h6.5
			c0,3.2,1.3,6.1,2.9,7.9c2.8,3,6.3,3.7,9.2,3.7c4.7,0,7.9-1.7,10.1-5.3c1.9-3.1,2.1-6.5,2.1-9.8v-5.5c-2.2,2.9-6.3,6.4-13.1,6.4
			c-5.6,0-10.1-2.2-13.1-5.2c-2.6-2.6-5.5-7.4-5.5-15.1c0-7.5,2.8-12.1,5.5-14.8c3.2-3.1,7.9-5.2,13.1-5.2c5.6,0,10,2.4,13.1,6.3
			V662z M1212.4,670.5c-3.2,3.3-3.9,7.4-3.9,10.5c0,3.3,0.6,7.8,4.3,11.2c2.1,1.9,4.7,3.1,8.2,3.1s6.3-1.1,8.4-3.2
			c2.6-2.5,4.3-6.5,4.3-11s-1.7-8.5-4-10.8c-2.1-2.1-5.2-3.4-8.6-3.4C1217,666.9,1214.3,668.7,1212.4,670.5z"/>
		<path d="M1259.2,684.2c0,2.7,0,5.8,1.8,8.2c1,1.3,3,2.9,6.7,2.9s5.7-1.7,6.7-2.9c1.8-2.4,1.8-5.5,1.8-8.2V662h6.6v23
			c0,4.7-0.5,8.2-3.5,11.5c-3.4,3.6-7.9,4.8-11.7,4.8c-3.8,0-8.3-1.2-11.7-4.8c-3-3.3-3.5-6.8-3.5-11.5v-23h6.6V684.2z"/>
		<path d="M1324.7,662h6.6v38.2h-6.6v-5.3c-2.2,2.9-6.3,6.4-13.1,6.4c-9.7,0-18.6-6.8-18.6-20.2c0-13.2,8.8-20,18.6-20
			c7.4,0,11.3,4,13.1,6.3V662z M1299.8,681c0,8.2,4.6,14.4,12.5,14.4c8.1,0,12.7-6.7,12.7-14.3c0-9.8-6.8-14.2-12.7-14.2
			C1305.8,666.9,1299.8,671.7,1299.8,681z"/>
		<path d="M1343.8,662h6.6v4.1c0.6-1,3.5-5.1,8.6-5.1c2,0,4.2,0.7,5.9,1.6l-3.1,6c-1.5-1-2.9-1.3-3.9-1.3c-2.7,0-4.3,1.1-5.3,2.4
			c-1.1,1.5-2.2,4-2.2,10.3v20.1h-6.6V662z"/>
		<path d="M1398.1,633.1h6.6v67.1h-6.6v-5.3c-2.2,2.9-6.3,6.4-13.1,6.4c-9.7,0-18.6-6.8-18.6-20.2c0-13.2,8.8-20,18.6-20
			c7.4,0,11.3,4,13.1,6.3V633.1z M1373.2,681c0,8.2,4.6,14.4,12.5,14.4c8.1,0,12.7-6.7,12.7-14.3c0-9.8-6.8-14.2-12.7-14.2
			C1379.2,666.9,1373.2,671.7,1373.2,681z"/>
	</g>
</g>
<g id="Layer_3" class="st3">
	<polygon class="st8" points="451.1,270.8 727,602.3 866.5,602.3 590.6,270.8 1149.8,270.8 1240.6,163.5 197,163.5 286.2,270.8 	"/>
	<polygon class="st8" points="562.1,602.3 701.6,602.3 442,290.3 302.5,290.3 	"/>
	<polygon class="st9" points="963.7,521 771.8,290.3 632.2,290.3 891.8,602.3 1035.4,602.3 1406.6,163.5 1266.1,163.5 	"/>
	<polygon class="st6" points="963.8,490.6 1133.3,290.3 797.1,290.3 	"/>
	<polygon class="st5" points="1201.4,602.3 1571.5,165 1431,165 1060.9,602.3 	"/>
	<g class="st7">
		<path d="M246.3,60.9v84.3h-10.4V60.9H213V51h56.2v9.9H246.3z"/>
		<path d="M314.9,51c6.4,0,15.8,0.4,22.9,5.2c5.5,3.7,10.3,10.9,10.3,20.9c0,14.4-9.5,25-23.7,26l29.9,42.1h-12.7L313,103.9h-2.7
			v41.2h-10.4V51H314.9z M310.3,94.6h6.6c13,0,20.7-6.2,20.7-17.2c0-5.2-1.6-10.4-7.5-13.8c-4.2-2.4-9-2.7-13.5-2.7h-6.4V94.6z"/>
		<path d="M397.6,51v94.1h-10.4V51H397.6z"/>
		<path d="M439,51l26.5,71.8L492.1,51h11.6l-38.1,99.8L427.4,51H439z"/>
		<path d="M543.9,51v94.1h-10.4V51H543.9z"/>
		<path d="M636.6,118.6h-40.1l-11.3,26.5h-11.6L617,46.5l42.2,98.7h-11.6L636.6,118.6z M632.5,108.7L616.7,71l-16.1,37.7H632.5z"/>
		<path d="M738.9,51l26.5,71.8L792,51h11.6l-38.1,99.8L727.4,51H738.9z"/>
		<path d="M878,118.6h-40.1l-11.3,26.5H815l43.3-98.7l42.2,98.7H889L878,118.6z M873.9,108.7L858.1,71L842,108.7H873.9z"/>
		<path d="M930.3,145.1V47l73.4,76.9V51h10.4v98.4l-73.4-76.9v72.7H930.3z"/>
		<path d="M1103.5,97.9h39.2v2.3c0,10.4-3.1,21.7-9,29.8c-2.8,3.8-13.4,16.9-35,16.9c-27.9,0-48.8-21.3-48.8-48.7s21-48.7,49.1-48.7
			c9,0,19.6,2.3,28.8,9.3c4.2,3.2,8.2,7.5,10.9,11.2l-7.8,7.1c-2.7-3.8-5.8-7.2-8.9-9.7c-4.5-3.7-11.6-7.9-22.9-7.9
			c-22.7,0-38.5,17.1-38.5,39c0,25.7,20.5,38.7,38.2,38.7c12.6,0,23.4-6.4,28.8-15.8c1.7-3,3.5-7.5,3.8-13.4h-27.9V97.9z"/>
		<path d="M1188.9,108.7c0,7.9,0,16.5,7.5,22.9c3.8,3.2,10.3,5.4,15.5,5.4c5.2,0,11.7-2.1,15.5-5.4c7.5-6.4,7.5-15,7.5-22.9V51h10.4
			v60.6c0,7.9-0.8,15.5-5.9,22.6c-5.6,7.8-15.5,12.7-27.5,12.7c-12,0-21.9-4.9-27.5-12.7c-5.1-7.1-5.9-14.7-5.9-22.6V51h10.4V108.7z
			"/>
		<path d="M1338.1,118.6H1298l-11.3,26.5h-11.6l43.3-98.7l42.2,98.7h-11.6L1338.1,118.6z M1334,108.7L1318.2,71l-16.1,37.7H1334z"/>
		<path d="M1405.6,51c6.4,0,15.8,0.4,22.9,5.2c5.5,3.7,10.3,10.9,10.3,20.9c0,14.4-9.5,25-23.7,26l29.9,42.1h-12.7l-28.7-41.2h-2.7
			v41.2h-10.4V51H1405.6z M1400.9,94.6h6.6c13,0,20.7-6.2,20.7-17.2c0-5.2-1.6-10.4-7.5-13.8c-4.2-2.4-9-2.7-13.5-2.7h-6.4V94.6z"/>
		<path d="M1477.9,51h19.2c9.5,0,22.9,1,34.7,11c8.6,7.2,16.1,19.2,16.1,36.1c0,19.8-9.7,30.3-16.5,36.1
			c-8.6,7.3-17.6,10.9-34.4,10.9h-19.1V51z M1488.3,135.3h9.2c7.5,0,17.8-0.8,27-8.5c7.1-5.9,12.7-15.2,12.7-28.7
			c0-22.6-15.8-37.3-39.7-37.3h-9.2V135.3z"/>
	</g>
	<g class="st7">
		<path d="M342.1,668v32.1h-6.6V668h-3.7V662h3.7v-16.7c0-3.5,0.3-7.9,3.7-10.8c1.8-1.6,4.6-2.5,7.6-2.5c2.4,0,4,0.6,4.7,0.8v6.4
			c-1.4-0.6-2.9-0.8-4.3-0.8c-1.5,0-3.2,0.4-4.2,2c-0.8,1.4-0.8,3.5-0.8,5.5V662h9.4v6.1H342.1z"/>
		<path d="M386.6,662h6.6v38.2h-6.6v-5.3c-2.2,2.9-6.3,6.4-13.1,6.4c-9.7,0-18.6-6.8-18.6-20.2c0-13.2,8.8-20,18.6-20
			c7.4,0,11.3,4,13.1,6.3V662z M361.8,681c0,8.2,4.6,14.4,12.5,14.4c8.1,0,12.7-6.7,12.7-14.3c0-9.8-6.8-14.2-12.7-14.2
			C367.8,666.9,361.8,671.7,361.8,681z"/>
		<path d="M435.7,672.6c-3.5-4.4-8.6-5.7-12-5.7c-7.1,0-13.5,5-13.5,14.3s6.6,14.2,13.4,14.2c4,0,8.8-1.7,12.3-6v7.9
			c-4.1,3-8.6,4-12.1,4c-11.9,0-20.4-8.5-20.4-20c0-11.7,8.6-20.2,20.4-20.2c6.1,0,10,2.4,11.9,3.7V672.6z"/>
		<path d="M479.9,690.4c-1.1,2.1-2.8,4.4-4.7,6.2c-3.5,3.1-7.8,4.7-12.7,4.7c-9.2,0-18.9-5.8-18.9-20c0-11.4,7-20.2,18.5-20.2
			c7.5,0,12.1,3.7,14.4,7c2.4,3.4,3.8,9.3,3.6,14.4h-29.7c0.1,7.9,5.5,13,12.1,13c3.1,0,5.6-0.9,7.8-2.8c1.7-1.5,3.1-3.4,4-5.2
			L479.9,690.4z M473.4,676.9c-1.1-6-5.6-9.9-11.2-9.9c-5.6,0-10.2,4.2-11.2,9.9H473.4z"/>
		<path d="M496.9,700.1h-6.6v-67.1h6.6v34.2c4.5-5.6,10.3-6.3,13.1-6.3c12,0,18.6,9.9,18.6,20.2c0,10.5-6.7,20-18.3,20
			c-6.2,0-10.5-2.8-13.3-6.4V700.1z M521.8,681.3c0-9.4-6.3-14.4-12.5-14.4c-6.2,0-12.7,5.1-12.7,14.3c0,7.8,5,14.2,12.8,14.2
			C517.1,695.4,521.8,688.9,521.8,681.3z"/>
		<path d="M536.3,681.2c0-11.6,8.6-20.1,20.2-20.1s20.2,8.6,20.2,20.1c0,11.6-8.6,20.1-20.2,20.1C545,701.3,536.3,692.8,536.3,681.2
			z M543.1,681.2c0,9.4,6.6,14.2,13.4,14.2c6.9,0,13.4-4.9,13.4-14.2c0-9.4-6.4-14.3-13.4-14.3C549.6,666.9,543.1,671.9,543.1,681.2
			z"/>
		<path d="M584.5,681.2c0-11.6,8.6-20.1,20.2-20.1s20.2,8.6,20.2,20.1c0,11.6-8.6,20.1-20.2,20.1
			C593.2,701.3,584.5,692.8,584.5,681.2z M591.3,681.2c0,9.4,6.6,14.2,13.4,14.2c6.9,0,13.4-4.9,13.4-14.2c0-9.4-6.4-14.3-13.4-14.3
			C597.8,666.9,591.3,671.9,591.3,681.2z"/>
		<path d="M641.8,633.1v43.1l14-14.2h8.6L648,678.3l19.3,21.8h-8.6l-15.3-17.4l-1.7,1.7v15.7h-6.6v-67.1H641.8z"/>
		<path d="M678.2,691.9c2.5,0,4.6,2.1,4.6,4.6s-2.1,4.6-4.6,4.6c-2.5,0-4.6-2.1-4.6-4.6S675.7,691.9,678.2,691.9z"/>
		<path d="M724.8,672.6c-3.5-4.4-8.6-5.7-12-5.7c-7.1,0-13.5,5-13.5,14.3s6.6,14.2,13.4,14.2c4,0,8.8-1.7,12.3-6v7.9
			c-4.1,3-8.6,4-12.1,4c-11.9,0-20.4-8.5-20.4-20c0-11.7,8.6-20.2,20.4-20.2c6.1,0,10,2.4,11.9,3.7V672.6z"/>
		<path d="M732.8,681.2c0-11.6,8.6-20.1,20.2-20.1s20.2,8.6,20.2,20.1c0,11.6-8.6,20.1-20.2,20.1
			C741.5,701.3,732.8,692.8,732.8,681.2z M739.6,681.2c0,9.4,6.6,14.2,13.4,14.2c6.9,0,13.4-4.9,13.4-14.2c0-9.4-6.4-14.3-13.4-14.3
			C746.1,666.9,739.6,671.9,739.6,681.2z"/>
		<path d="M783.4,662h6.6v4c2.1-3.1,5.4-5,9.5-5c6.9,0,9.7,4.9,10.4,6.2c3.7-5.8,8.9-6.2,11.5-6.2c11.3,0,12.4,9.5,12.4,14.9v24.2
			h-6.6V677c0-4.3-0.6-10-6.8-10c-7.6,0-8.5,7.4-8.5,12v21.3h-6.6v-22.6c0-2.7,0.1-10.6-6.9-10.6c-7.5,0-8.4,7.8-8.4,12.4v20.8h-6.6
			V662z"/>
		<path d="M887.5,630.3l5.3,2.8l-47.3,85.3l-5.3-2.6L887.5,630.3z"/>
		<path d="M907.7,668v32.1h-6.6V668h-4V662h4v-13.8h6.6V662h6.6v6.1H907.7z"/>
		<path d="M920.6,662h6.6v4.1c0.6-1,3.5-5.1,8.6-5.1c2,0,4.2,0.7,5.9,1.6l-3.1,6c-1.5-1-2.9-1.3-3.9-1.3c-2.7,0-4.3,1.1-5.3,2.4
			c-1.1,1.5-2.2,4-2.2,10.3v20.1h-6.6V662z"/>
		<path d="M951.1,642.8c2.6,0,4.7,2.1,4.7,4.7c0,2.6-2.1,4.7-4.7,4.7s-4.7-2.1-4.7-4.7C946.5,645,948.6,642.8,951.1,642.8z
			 M954.5,662v38.2h-6.6V662H954.5z"/>
		<path d="M968.8,662l11.4,25.8l11.4-25.8h7.4l-18.8,40.7L961.4,662H968.8z"/>
		<path d="M1009.3,642.8c2.6,0,4.7,2.1,4.7,4.7c0,2.6-2.1,4.7-4.7,4.7s-4.7-2.1-4.7-4.7C1004.6,645,1006.7,642.8,1009.3,642.8z
			 M1012.6,662v38.2h-6.6V662H1012.6z"/>
		<path d="M1054.4,662h6.6v38.2h-6.6v-5.3c-2.2,2.9-6.3,6.4-13.1,6.4c-9.7,0-18.6-6.8-18.6-20.2c0-13.2,8.8-20,18.6-20
			c7.4,0,11.3,4,13.1,6.3V662z M1029.5,681c0,8.2,4.6,14.4,12.5,14.4c8.1,0,12.7-6.7,12.7-14.3c0-9.8-6.8-14.2-12.7-14.2
			C1035.5,666.9,1029.5,671.7,1029.5,681z"/>
		<path d="M1075.3,662l11.4,25.8l11.4-25.8h7.4l-18.8,40.7L1068,662H1075.3z"/>
		<path d="M1141.8,662h6.6v38.2h-6.6v-5.3c-2.2,2.9-6.3,6.4-13.1,6.4c-9.7,0-18.6-6.8-18.6-20.2c0-13.2,8.8-20,18.6-20
			c7.4,0,11.3,4,13.1,6.3V662z M1116.9,681c0,8.2,4.6,14.4,12.5,14.4c8.1,0,12.7-6.7,12.7-14.3c0-9.8-6.8-14.2-12.7-14.2
			C1122.9,666.9,1116.9,671.7,1116.9,681z"/>
		<path d="M1160.9,662h6.6v4.4c1.2-1.6,4.6-5.3,10.9-5.3c4.5,0,8.6,1.8,10.9,5.2c1.9,2.9,2.2,6,2.2,10.2v23.6h-6.6v-23.5
			c0-2.3-0.2-5-1.7-7c-1.3-1.7-3.3-2.8-6.3-2.8c-2.3,0-4.8,0.6-6.7,2.9c-2.6,3-2.8,7.5-2.8,10.3v20h-6.6V662z"/>
		<path d="M1233.4,662h6.6v37.3c0,4.1,0,10-3.7,15c-2.9,3.9-8.1,7.1-15.3,7.1c-6.5,0-11-2.6-13.6-5.2c-2.6-2.6-5-6.7-5-12.3h6.5
			c0,3.2,1.3,6.1,2.9,7.9c2.8,3,6.3,3.7,9.2,3.7c4.7,0,7.9-1.7,10.1-5.3c1.9-3.1,2.1-6.5,2.1-9.8v-5.5c-2.2,2.9-6.3,6.4-13.1,6.4
			c-5.6,0-10.1-2.2-13.1-5.2c-2.6-2.6-5.5-7.4-5.5-15.1c0-7.5,2.8-12.1,5.5-14.8c3.2-3.1,7.9-5.2,13.1-5.2c5.6,0,10,2.4,13.1,6.3
			V662z M1212.4,670.5c-3.2,3.3-3.9,7.4-3.9,10.5c0,3.3,0.6,7.8,4.3,11.2c2.1,1.9,4.7,3.1,8.2,3.1s6.3-1.1,8.4-3.2
			c2.6-2.5,4.3-6.5,4.3-11s-1.7-8.5-4-10.8c-2.1-2.1-5.2-3.4-8.6-3.4C1217,666.9,1214.3,668.7,1212.4,670.5z"/>
		<path d="M1259.2,684.2c0,2.7,0,5.8,1.8,8.2c1,1.3,3,2.9,6.7,2.9s5.7-1.7,6.7-2.9c1.8-2.4,1.8-5.5,1.8-8.2V662h6.6v23
			c0,4.7-0.5,8.2-3.5,11.5c-3.4,3.6-7.9,4.8-11.7,4.8c-3.8,0-8.3-1.2-11.7-4.8c-3-3.3-3.5-6.8-3.5-11.5v-23h6.6V684.2z"/>
		<path d="M1324.7,662h6.6v38.2h-6.6v-5.3c-2.2,2.9-6.3,6.4-13.1,6.4c-9.7,0-18.6-6.8-18.6-20.2c0-13.2,8.8-20,18.6-20
			c7.4,0,11.3,4,13.1,6.3V662z M1299.8,681c0,8.2,4.6,14.4,12.5,14.4c8.1,0,12.7-6.7,12.7-14.3c0-9.8-6.8-14.2-12.7-14.2
			C1305.8,666.9,1299.8,671.7,1299.8,681z"/>
		<path d="M1343.8,662h6.6v4.1c0.6-1,3.5-5.1,8.6-5.1c2,0,4.2,0.7,5.9,1.6l-3.1,6c-1.5-1-2.9-1.3-3.9-1.3c-2.7,0-4.3,1.1-5.3,2.4
			c-1.1,1.5-2.2,4-2.2,10.3v20.1h-6.6V662z"/>
		<path d="M1398.1,633.1h6.6v67.1h-6.6v-5.3c-2.2,2.9-6.3,6.4-13.1,6.4c-9.7,0-18.6-6.8-18.6-20.2c0-13.2,8.8-20,18.6-20
			c7.4,0,11.3,4,13.1,6.3V633.1z M1373.2,681c0,8.2,4.6,14.4,12.5,14.4c8.1,0,12.7-6.7,12.7-14.3c0-9.8-6.8-14.2-12.7-14.2
			C1379.2,666.9,1373.2,671.7,1373.2,681z"/>
	</g>
</g>
</svg>
